<svg width="60" height="60" viewBox="0 0 60 60" fill="none" xmlns="http://www.w3.org/2000/svg">
<rect x="0.5" y="0.5" width="59" height="59" rx="29.5" fill="white"/>
<rect x="0.5" y="0.5" width="59" height="59" rx="29.5" stroke="#02019C"/>
<mask id="mask0_101_679" style="mask-type:alpha" maskUnits="userSpaceOnUse" x="10" y="10" width="40" height="40">
<rect x="10" y="10" width="40" height="40" fill="#D9D9D9"/>
</mask>
<g mask="url(#mask0_101_679)">
<path d="M42.4006 44.1666C39.2597 44.1666 36.1043 43.4363 32.9343 41.9758C29.7646 40.5152 26.8522 38.4549 24.1972 35.7949C21.5425 33.1346 19.4849 30.2221 18.0243 27.0574C16.5638 23.893 15.8335 20.7403 15.8335 17.5995C15.8335 17.0948 16.0002 16.6742 16.3335 16.3378C16.6668 16.0014 17.0835 15.8333 17.5835 15.8333H23.0193C23.4402 15.8333 23.8114 15.9706 24.1331 16.2453C24.4547 16.5198 24.6593 16.8589 24.7468 17.2628L25.7022 22.1666C25.7684 22.6216 25.7545 23.0126 25.6606 23.3395C25.5664 23.6664 25.3975 23.941 25.1539 24.1633L21.3047 27.9103C21.9242 29.0448 22.632 30.118 23.4281 31.1299C24.2239 32.1416 25.0856 33.1078 26.0131 34.0287C26.9275 34.9434 27.8997 35.7928 28.9297 36.577C29.9597 37.3612 31.072 38.0909 32.2664 38.7662L36.0064 34.9937C36.2672 34.7223 36.5831 34.532 36.9539 34.4228C37.3245 34.3139 37.7096 34.2873 38.1093 34.3428L42.7372 35.2853C43.1581 35.3964 43.5016 35.6112 43.7677 35.9295C44.0338 36.2478 44.1668 36.6089 44.1668 37.0128V42.4166C44.1668 42.9166 43.9986 43.3333 43.6622 43.6666C43.3259 43.9999 42.9053 44.1666 42.4006 44.1666ZM20.1218 25.5449L23.0964 22.6987C23.1497 22.6559 23.1845 22.5971 23.2006 22.5224C23.2167 22.4477 23.2141 22.3783 23.1927 22.3141L22.4681 18.5895C22.4467 18.5042 22.4093 18.4402 22.356 18.3974C22.3027 18.3546 22.2332 18.3333 22.1477 18.3333H18.5835C18.5193 18.3333 18.4659 18.3546 18.4231 18.3974C18.3806 18.4402 18.3593 18.4937 18.3593 18.5578C18.4446 19.6967 18.631 20.8537 18.9185 22.0287C19.2057 23.2039 19.6068 24.376 20.1218 25.5449ZM34.6218 39.9487C35.7266 40.4637 36.8788 40.8574 38.0785 41.1299C39.2785 41.4021 40.3997 41.5639 41.4422 41.6153C41.5064 41.6153 41.5599 41.5939 41.6027 41.5512C41.6454 41.5084 41.6668 41.4549 41.6668 41.3908V37.8845C41.6668 37.7989 41.6454 37.7295 41.6027 37.6762C41.5599 37.6228 41.4959 37.5855 41.4106 37.5641L37.9106 36.8524C37.8464 36.831 37.7903 36.8284 37.7422 36.8445C37.6942 36.8606 37.6434 36.8953 37.5897 36.9487L34.6218 39.9487Z" fill="#02019C"/>
</g>
</svg>
