<svg width="60" height="60" viewBox="0 0 60 60" fill="none" xmlns="http://www.w3.org/2000/svg">
<rect x="0.5" y="0.5" width="59" height="59" rx="29.5" stroke="#02019C"/>
<mask id="mask0_101_664" style="mask-type:alpha" maskUnits="userSpaceOnUse" x="10" y="10" width="40" height="40">
<rect x="10" y="10" width="40" height="40" fill="#D9D9D9"/>
</mask>
<g mask="url(#mask0_101_664)">
<path d="M17.1795 42.5C16.3376 42.5 15.625 42.2083 15.0416 41.625C14.4583 41.0417 14.1666 40.329 14.1666 39.4871V20.5129C14.1666 19.671 14.4583 18.9583 15.0416 18.375C15.625 17.7917 16.3376 17.5 17.1795 17.5H42.8204C43.6623 17.5 44.375 17.7917 44.9583 18.375C45.5416 18.9583 45.8333 19.671 45.8333 20.5129V39.4871C45.8333 40.329 45.5416 41.0417 44.9583 41.625C44.375 42.2083 43.6623 42.5 42.8204 42.5H17.1795ZM30 30.9296L16.6666 22.4037V39.4871C16.6666 39.6368 16.7147 39.7597 16.8108 39.8558C16.9069 39.9519 17.0298 40 17.1795 40H42.8204C42.9701 40 43.093 39.9519 43.1891 39.8558C43.2852 39.7597 43.3333 39.6368 43.3333 39.4871V22.4037L30 30.9296ZM30 28.3333L43.077 20H16.9229L30 28.3333ZM16.6666 22.4037V20V39.4871C16.6666 39.6368 16.7147 39.7597 16.8108 39.8558C16.9069 39.9519 17.0298 40 17.1795 40H16.6666V22.4037Z" fill="#02019C"/>
</g>
</svg>
