<svg width="60" height="60" viewBox="0 0 60 60" fill="none" xmlns="http://www.w3.org/2000/svg">
<rect x="0.5" y="0.5" width="59" height="59" rx="29.5" stroke="#02019C"/>
<mask id="mask0_101_620" style="mask-type:alpha" maskUnits="userSpaceOnUse" x="10" y="10" width="40" height="40">
<rect x="10" y="10" width="40" height="40" fill="#D9D9D9"/>
</mask>
<g mask="url(#mask0_101_620)">
<path d="M32.1293 28.8925C32.7182 28.3038 33.0126 27.594 33.0126 26.7629C33.0126 25.9318 32.7182 25.2218 32.1293 24.6329C31.5406 24.0443 30.8308 23.75 29.9997 23.75C29.1686 23.75 28.4587 24.0443 27.8701 24.6329C27.2812 25.2218 26.9868 25.9318 26.9868 26.7629C26.9868 27.594 27.2812 28.3038 27.8701 28.8925C28.4587 29.4811 29.1686 29.7754 29.9997 29.7754C30.8308 29.7754 31.5406 29.4811 32.1293 28.8925ZM29.9997 42.5225C33.2602 39.6036 35.7554 36.8038 37.4851 34.1233C39.2148 31.4427 40.0797 29.095 40.0797 27.08C40.0797 24.0416 39.1144 21.5438 37.1838 19.5866C35.2533 17.6294 32.8586 16.6508 29.9997 16.6508C27.1408 16.6508 24.7461 17.6294 22.8155 19.5866C20.885 21.5438 19.9197 24.0416 19.9197 27.08C19.9197 29.095 20.7845 31.4427 22.5143 34.1233C24.244 36.8038 26.7391 39.6036 29.9997 42.5225ZM29.9997 45.8491C25.8052 42.2147 22.66 38.8323 20.5638 35.702C18.4677 32.5715 17.4197 29.6975 17.4197 27.08C17.4197 23.2338 18.6637 20.1201 21.1518 17.7387C23.6401 15.3573 26.5894 14.1666 29.9997 14.1666C33.41 14.1666 36.3593 15.3573 38.8476 17.7387C41.3356 20.1201 42.5797 23.2338 42.5797 27.08C42.5797 29.6975 41.5316 32.5715 39.4355 35.702C37.3394 38.8323 34.1941 42.2147 29.9997 45.8491Z" fill="#02019C"/>
</g>
</svg>
